<svg width="21" height="14" viewBox="0 0 21 14" fill="none" xmlns="http://www.w3.org/2000/svg">
<g id="&#208;&#159;&#208;&#190;&#209;&#135;&#209;&#130;&#208;&#176; 3">
<path id="Vector" d="M2.28182 0C1.29385 0 0.5 0.812528 0.5 1.8047V12.1875C0.5 13.1797 1.29385 14 2.28182 14H19.0818C20.0698 14 20.8636 13.1797 20.8636 12.1875V1.8047C20.8636 0.812528 20.0698 0 19.0818 0H2.28182ZM2.28182 0.5H19.0818C19.3999 0.5 19.6863 0.624972 19.9091 0.820297L11.4852 8.6797C11.0186 9.1149 10.3616 9.10685 9.89431 8.67195L1.45455 0.820374C1.67737 0.625049 1.96374 0.5 2.28182 0.5ZM1.15227 1.22655L7.44431 7.08595L1.33521 13.0703C1.13364 12.8389 1.00909 12.528 1.00909 12.1875V1.8047C1.00909 1.59198 1.06725 1.40197 1.15227 1.22655ZM20.2114 1.22655C20.2964 1.40197 20.3545 1.59198 20.3545 1.8047V12.1875C20.3545 12.528 20.23 12.8389 20.0284 13.0703L13.9352 7.07812L20.2114 1.22655ZM13.5693 7.42188L19.6148 13.375C19.4516 13.4526 19.274 13.5 19.0818 13.5H2.28182C2.08961 13.5 1.91204 13.4526 1.74885 13.375L7.81024 7.4297L9.5443 9.03905C10.1926 9.6426 11.1873 9.6433 11.8352 9.03905L13.5693 7.42188Z" fill="#1C1C1C"/>
</g>
</svg>
