<svg width="18" height="18" viewBox="0 0 18 18" fill="none" xmlns="http://www.w3.org/2000/svg">
<path id="Vector" d="M11.1767 11.4127H6.78545C3.4731 11.4127 0.766425 13.9181 0.501437 17.0917C0.482509 17.3144 0.652859 17.5 0.879992 17.5C1.06927 17.5 1.23962 17.3515 1.25855 17.1659C1.48568 14.345 3.87058 12.155 6.78545 12.155H11.1956C14.1105 12.155 16.4954 14.3635 16.7415 17.1474C16.7604 17.333 16.9118 17.4814 17.12 17.4814C17.3471 17.4814 17.5175 17.2959 17.4986 17.0731C17.2146 13.8996 14.489 11.4127 11.1767 11.4127ZM8.98107 9.16703C11.4228 9.16703 13.3912 7.21834 13.3912 4.84279C13.3912 2.46725 11.4228 0.5 8.98107 0.5C6.53939 0.5 4.57091 2.44869 4.57091 4.84279C4.57091 7.2369 6.53939 9.16703 8.98107 9.16703ZM8.98107 1.24236C11.0063 1.24236 12.6341 2.85699 12.6341 4.82424C12.6341 6.81004 10.9874 8.40611 8.98107 8.40611C6.97473 8.40611 5.32802 6.81004 5.32802 4.84279C5.32802 2.85699 6.9558 1.24236 8.98107 1.24236Z" fill="#1C1C1C"/>
</svg>
