<svg width="18" height="18" viewBox="0 0 18 18" fill="none" xmlns="http://www.w3.org/2000/svg">
<g id="&#208;&#162;&#208;&#181;&#208;&#187;&#208;&#181;&#209;&#132;&#208;&#190;&#208;&#189; 3">
<path id="Vector" d="M15.9868 16.7018C15.8619 16.8131 15.7413 16.9206 15.6319 17.0251C15.3061 17.3358 14.7519 17.5 14.0288 17.5C11.905 17.5 8.33661 16.1176 5.14975 13.0265C3.23529 11.1345 1.76549 8.92768 1.01104 6.8126C0.31953 4.87365 0.330477 3.29777 1.03977 2.59692C1.18284 2.45537 1.3394 2.27789 1.50534 2.08978C2.12962 1.38141 2.90674 0.5 3.90472 0.5C4.53662 0.5 5.15092 0.861525 5.73083 1.57453C7.69044 3.98258 7.42462 4.60405 6.09222 5.90029C6.01795 5.97251 5.94036 6.04802 5.86003 6.1274C5.52815 6.45551 6.35276 8.24325 8.17164 10.0408C9.49193 11.3454 11.0581 12.3291 11.8147 12.3291C11.9904 12.3291 12.0469 12.2739 12.0654 12.2558C12.1487 12.1745 12.2292 12.0924 12.3084 12.012C12.7894 11.5231 13.2868 11.0175 14.0395 11.0175C14.7166 11.0175 15.4814 11.4416 16.4463 12.3521C17.1646 13.0302 17.5092 13.6851 17.4998 14.3542C17.4855 15.3639 16.6545 16.1057 15.9868 16.7018ZM15.9063 12.9106C15.1073 12.1565 14.4967 11.7898 14.0395 11.7898C13.6377 11.7898 13.333 12.0787 12.8692 12.5503C12.7865 12.6345 12.7022 12.72 12.6153 12.805C12.4769 12.9402 12.2255 13.1016 11.8147 13.1016C10.6742 13.1016 8.88563 11.8386 7.6189 10.587C6.781 9.75907 6.02792 8.80215 5.55238 7.96148C4.92107 6.84524 4.83859 6.04436 5.30729 5.58105C5.38918 5.50014 5.46814 5.42327 5.54398 5.34969C6.61095 4.31166 6.80309 4.12472 5.12161 2.0585C4.69747 1.53688 4.288 1.27249 3.90472 1.27249C3.26246 1.27249 2.64229 1.97623 2.09483 2.59712C1.9199 2.79545 1.75474 2.98278 1.59251 3.14327C1.21451 3.51657 1.10193 4.74387 1.74829 6.55594C2.46462 8.56441 3.86895 10.6683 5.70015 12.478C8.72692 15.4135 12.0641 16.7275 14.029 16.7275C14.7414 16.7275 15.0076 16.5469 15.0889 16.4693C15.2042 16.3592 15.3313 16.2459 15.4628 16.1284C16.0466 15.607 16.7086 15.0163 16.718 14.3432C16.7241 13.907 16.451 13.4249 15.9063 12.9106Z" fill="#1C1C1C"/>
</g>
</svg>
