<svg width="73" height="73" viewBox="0 0 73 73" fill="none" xmlns="http://www.w3.org/2000/svg">
<g id="Group">
<g id="Vector">
<mask id="path-1-inside-1_103_5660" fill="white">
<path d="M72.9983 13.6872V6.84356V6.83216C72.9986 6.72397 72.9828 6.61635 72.9515 6.51279C72.9458 6.49454 72.9344 6.47743 72.9276 6.45918C72.8989 6.37631 72.8606 6.29707 72.8135 6.22308C72.7919 6.19403 72.7687 6.16623 72.7439 6.13981C72.6825 6.0457 72.5996 5.96751 72.5021 5.91169C72.4487 5.87244 72.3918 5.83808 72.3322 5.80904C72.3196 5.80904 72.3093 5.79307 72.2968 5.78737C72.2657 5.77802 72.2341 5.77041 72.2021 5.76456C72.1651 5.7482 72.127 5.73448 72.0881 5.7235L43.5731 0.0205044C43.3896 -0.0163669 43.1998 -0.00722777 43.0207 0.0471062C42.8416 0.10144 42.6787 0.199278 42.5466 0.331888L0.344461 42.534C0.260056 42.6206 0.190326 42.7204 0.138012 42.8294C0.125466 42.8534 0.118622 42.8773 0.108357 42.9024C0.0527061 43.0325 0.0213916 43.1717 0.0159684 43.313C0.0159684 43.3222 0.0159684 43.3313 0.0159684 43.3404V50.184C0.0159147 50.447 0.106711 50.7018 0.272989 50.9055C0.439268 51.1092 0.670817 51.2492 0.928447 51.3018L6.4421 52.4048L0.334195 58.5047C0.280309 58.5683 0.233995 58.638 0.196183 58.7123C0.161534 58.7574 0.130272 58.8051 0.102654 58.8548C0.0376035 58.9983 0.00266579 59.1536 2.37765e-08 59.3111V66.1547C-5.36425e-05 66.4176 0.0907422 66.6725 0.257021 66.8762C0.4233 67.0799 0.654848 67.2199 0.912478 67.2724L29.4274 72.9754C29.5024 72.9912 29.5789 72.9989 29.6556 72.9982C29.7942 72.9968 29.9314 72.9702 30.0605 72.9195C30.1015 72.9036 30.1346 72.8751 30.1745 72.8557C30.2468 72.8251 30.3156 72.7868 30.3798 72.7416C30.3935 72.7302 30.3992 72.712 30.4129 72.7006C30.4266 72.6891 30.4483 72.6812 30.4631 72.6663L72.6652 30.4642C72.7712 30.358 72.8552 30.2318 72.9123 30.0931C72.9695 29.9543 72.9987 29.8056 72.9983 29.6555V22.8119C72.9941 22.7605 72.9865 22.7095 72.9755 22.6591C72.9715 22.6208 72.9654 22.5827 72.9572 22.545C72.9287 22.4178 72.8781 22.2966 72.8078 22.1869C72.7119 22.0436 72.5823 21.9261 72.4303 21.8447C72.3872 21.8149 72.3422 21.7878 72.2957 21.7637C72.2477 21.7487 72.199 21.7366 72.1497 21.7272C72.1257 21.7272 72.1075 21.7044 72.0824 21.6999L66.5687 20.5958L72.6652 14.4993C72.7716 14.3926 72.8558 14.2659 72.913 14.1265C72.9702 13.9871 72.9991 13.8378 72.9983 13.6872ZM29.2803 63.7765L26.5064 63.221C27.2182 61.0361 28.1995 58.9483 29.4274 57.0059C29.5024 57.0221 29.5789 57.0301 29.6556 57.0299C29.7942 57.0285 29.9314 57.0018 30.0605 56.9512C30.1015 56.9352 30.1346 56.9067 30.1745 56.8873C30.2468 56.8567 30.3156 56.8184 30.3798 56.7732C30.3935 56.7618 30.3992 56.7436 30.4129 56.7322C30.4266 56.7208 30.4483 56.7128 30.4631 56.698L49.8441 37.3146C48.9095 39.8192 48.2817 42.4277 47.9747 45.0833L29.2803 63.7765ZM27.0402 56.5292C25.8771 58.4966 24.943 60.5907 24.256 62.7705L13.9723 60.7174C14.5772 58.5492 15.3467 56.4303 16.2741 54.3791L27.0402 56.5292ZM50.581 3.7514L45.2201 9.39166C35.2632 19.8747 28.3641 32.8821 25.27 47.0052L14.3305 44.8175C21.706 31.8163 30.7984 19.8672 41.3626 9.29243L47.5162 3.1389L50.581 3.7514ZM29.2803 47.8081L27.5067 47.4489C30.5184 33.7489 37.2171 21.1326 46.8786 10.9634L53.2283 4.28064L58.0564 5.24672L51.9371 11.009C44.3341 18.1513 39.6588 27.8658 38.8203 38.2636L29.2803 47.8081ZM53.5009 12.6697L60.8007 5.79649L69.54 7.54389L41.4254 35.6631C42.762 26.8626 47.0143 18.7656 53.5009 12.6697ZM43.718 2.37812L44.8312 2.60624L39.7533 7.67962C28.8618 18.576 19.5137 30.9125 11.9694 44.3453L3.45373 42.6424L43.718 2.37812ZM2.2812 44.7342L28.515 49.981V54.4977L2.2812 49.251V44.7342ZM13.9815 53.9172C13.0794 55.9766 12.327 58.0982 11.7299 60.2658L3.45373 58.6107L9.12478 52.9454L13.9815 53.9172ZM2.2812 60.7026L28.515 65.9494V70.4661L2.2812 65.2194V60.7026ZM70.7171 29.1833L30.7961 69.1042V65.4863L70.7171 25.5653V29.1833ZM69.5445 23.5123L50.7566 42.2968C51.6873 37.3782 54.1295 32.8725 57.7428 29.408L64.6251 22.5256L69.5445 23.5123ZM70.7171 13.2149L30.7961 53.1359V49.5179L70.7171 9.59697V13.2149Z"/>
</mask>
<path d="M72.9983 13.6872V6.84356V6.83216C72.9986 6.72397 72.9828 6.61635 72.9515 6.51279C72.9458 6.49454 72.9344 6.47743 72.9276 6.45918C72.8989 6.37631 72.8606 6.29707 72.8135 6.22308C72.7919 6.19403 72.7687 6.16623 72.7439 6.13981C72.6825 6.0457 72.5996 5.96751 72.5021 5.91169C72.4487 5.87244 72.3918 5.83808 72.3322 5.80904C72.3196 5.80904 72.3093 5.79307 72.2968 5.78737C72.2657 5.77802 72.2341 5.77041 72.2021 5.76456C72.1651 5.7482 72.127 5.73448 72.0881 5.7235L43.5731 0.0205044C43.3896 -0.0163669 43.1998 -0.00722777 43.0207 0.0471062C42.8416 0.10144 42.6787 0.199278 42.5466 0.331888L0.344461 42.534C0.260056 42.6206 0.190326 42.7204 0.138012 42.8294C0.125466 42.8534 0.118622 42.8773 0.108357 42.9024C0.0527061 43.0325 0.0213916 43.1717 0.0159684 43.313C0.0159684 43.3222 0.0159684 43.3313 0.0159684 43.3404V50.184C0.0159147 50.447 0.106711 50.7018 0.272989 50.9055C0.439268 51.1092 0.670817 51.2492 0.928447 51.3018L6.4421 52.4048L0.334195 58.5047C0.280309 58.5683 0.233995 58.638 0.196183 58.7123C0.161534 58.7574 0.130272 58.8051 0.102654 58.8548C0.0376035 58.9983 0.00266579 59.1536 2.37765e-08 59.3111V66.1547C-5.36425e-05 66.4176 0.0907422 66.6725 0.257021 66.8762C0.4233 67.0799 0.654848 67.2199 0.912478 67.2724L29.4274 72.9754C29.5024 72.9912 29.5789 72.9989 29.6556 72.9982C29.7942 72.9968 29.9314 72.9702 30.0605 72.9195C30.1015 72.9036 30.1346 72.8751 30.1745 72.8557C30.2468 72.8251 30.3156 72.7868 30.3798 72.7416C30.3935 72.7302 30.3992 72.712 30.4129 72.7006C30.4266 72.6891 30.4483 72.6812 30.4631 72.6663L72.6652 30.4642C72.7712 30.358 72.8552 30.2318 72.9123 30.0931C72.9695 29.9543 72.9987 29.8056 72.9983 29.6555V22.8119C72.9941 22.7605 72.9865 22.7095 72.9755 22.6591C72.9715 22.6208 72.9654 22.5827 72.9572 22.545C72.9287 22.4178 72.8781 22.2966 72.8078 22.1869C72.7119 22.0436 72.5823 21.9261 72.4303 21.8447C72.3872 21.8149 72.3422 21.7878 72.2957 21.7637C72.2477 21.7487 72.199 21.7366 72.1497 21.7272C72.1257 21.7272 72.1075 21.7044 72.0824 21.6999L66.5687 20.5958L72.6652 14.4993C72.7716 14.3926 72.8558 14.2659 72.913 14.1265C72.9702 13.9871 72.9991 13.8378 72.9983 13.6872ZM29.2803 63.7765L26.5064 63.221C27.2182 61.0361 28.1995 58.9483 29.4274 57.0059C29.5024 57.0221 29.5789 57.0301 29.6556 57.0299C29.7942 57.0285 29.9314 57.0018 30.0605 56.9512C30.1015 56.9352 30.1346 56.9067 30.1745 56.8873C30.2468 56.8567 30.3156 56.8184 30.3798 56.7732C30.3935 56.7618 30.3992 56.7436 30.4129 56.7322C30.4266 56.7208 30.4483 56.7128 30.4631 56.698L49.8441 37.3146C48.9095 39.8192 48.2817 42.4277 47.9747 45.0833L29.2803 63.7765ZM27.0402 56.5292C25.8771 58.4966 24.943 60.5907 24.256 62.7705L13.9723 60.7174C14.5772 58.5492 15.3467 56.4303 16.2741 54.3791L27.0402 56.5292ZM50.581 3.7514L45.2201 9.39166C35.2632 19.8747 28.3641 32.8821 25.27 47.0052L14.3305 44.8175C21.706 31.8163 30.7984 19.8672 41.3626 9.29243L47.5162 3.1389L50.581 3.7514ZM29.2803 47.8081L27.5067 47.4489C30.5184 33.7489 37.2171 21.1326 46.8786 10.9634L53.2283 4.28064L58.0564 5.24672L51.9371 11.009C44.3341 18.1513 39.6588 27.8658 38.8203 38.2636L29.2803 47.8081ZM53.5009 12.6697L60.8007 5.79649L69.54 7.54389L41.4254 35.6631C42.762 26.8626 47.0143 18.7656 53.5009 12.6697ZM43.718 2.37812L44.8312 2.60624L39.7533 7.67962C28.8618 18.576 19.5137 30.9125 11.9694 44.3453L3.45373 42.6424L43.718 2.37812ZM2.2812 44.7342L28.515 49.981V54.4977L2.2812 49.251V44.7342ZM13.9815 53.9172C13.0794 55.9766 12.327 58.0982 11.7299 60.2658L3.45373 58.6107L9.12478 52.9454L13.9815 53.9172ZM2.2812 60.7026L28.515 65.9494V70.4661L2.2812 65.2194V60.7026ZM70.7171 29.1833L30.7961 69.1042V65.4863L70.7171 25.5653V29.1833ZM69.5445 23.5123L50.7566 42.2968C51.6873 37.3782 54.1295 32.8725 57.7428 29.408L64.6251 22.5256L69.5445 23.5123ZM70.7171 13.2149L30.7961 53.1359V49.5179L70.7171 9.59697V13.2149Z" fill="black" stroke="white" mask="url(#path-1-inside-1_103_5660)"/>
</g>
</g>
</svg>
