<svg width="17" height="17" viewBox="0 0 17 17" fill="none" xmlns="http://www.w3.org/2000/svg">
<path id="Vector" fill-rule="evenodd" clip-rule="evenodd" d="M12.4184 11.6227C13.4996 10.2283 14.0091 8.47424 13.8434 6.71735C13.6776 4.96046 12.8491 3.33273 11.5262 2.1653C10.2034 0.997864 8.48571 0.37843 6.72256 0.433011C4.95941 0.487592 3.28328 1.21209 2.03514 2.45911C0.785915 3.70699 0.0593398 5.38445 0.00347683 7.14964C-0.0523861 8.91483 0.566668 10.6349 1.73449 11.9593C2.9023 13.2838 4.53099 14.1129 6.28866 14.2777C8.04632 14.4426 9.80068 13.9308 11.1942 12.8465L11.2315 12.8856L14.9093 16.5657C14.9899 16.6463 15.0855 16.7103 15.1908 16.7539C15.296 16.7975 15.4088 16.8199 15.5228 16.8199C15.6367 16.8199 15.7495 16.7975 15.8547 16.7539C15.96 16.7103 16.0556 16.6463 16.1362 16.5657C16.2167 16.4852 16.2806 16.3895 16.3242 16.2842C16.3678 16.1789 16.3902 16.0661 16.3902 15.9521C16.3902 15.8381 16.3678 15.7253 16.3242 15.62C16.2806 15.5147 16.2167 15.419 16.1362 15.3384L12.4574 11.6591C12.4448 11.6466 12.4318 11.6345 12.4184 11.6227ZM10.6185 3.68641C11.108 4.16821 11.4973 4.7422 11.764 5.37527C12.0307 6.00834 12.1694 6.68796 12.1722 7.37494C12.175 8.06191 12.0418 8.74265 11.7803 9.37787C11.5188 10.0131 11.1342 10.5902 10.6486 11.076C10.163 11.5618 9.58611 11.9466 8.95114 12.2082C8.31617 12.4698 7.63571 12.603 6.94901 12.6002C6.26231 12.5974 5.58296 12.4586 4.95014 12.1919C4.31732 11.9251 3.74356 11.5356 3.26196 11.0459C2.29951 10.0673 1.7626 8.7478 1.76819 7.37494C1.77378 6.00207 2.32141 4.68703 3.29179 3.71626C4.26217 2.74549 5.57669 2.19764 6.94901 2.19205C8.32133 2.18646 9.64027 2.72358 10.6185 3.68641Z" fill="white"/>
</svg>
